<svg xmlns="http://www.w3.org/2000/svg" width="31" height="31" fill="none"><path fill="#FFC107" d="M30.45 12.364h-1.238V12.3H15.375v6.15h8.689c-1.268 3.58-4.674 6.15-8.69 6.15a9.225 9.225 0 0 1 0-18.45c2.352 0 4.492.887 6.12 2.336l4.35-4.349C23.096 1.578 19.423 0 15.373 0 6.885 0 0 6.884 0 15.375c0 8.49 6.884 15.374 15.375 15.374 8.49 0 15.374-6.884 15.374-15.374 0-1.031-.106-2.037-.299-3.011Z"/><path fill="#FF3D00" d="m1.772 8.219 5.052 3.704C8.19 8.539 11.5 6.15 15.374 6.15c2.352 0 4.491.887 6.12 2.336l4.349-4.349C23.097 1.578 19.423 0 15.374 0 9.47 0 4.347 3.334 1.772 8.219Z"/><path fill="#4CAF50" d="M15.376 30.748c3.971 0 7.58-1.52 10.308-3.99l-4.759-4.027a9.156 9.156 0 0 1-5.55 1.868c-3.998 0-7.394-2.55-8.673-6.109l-5.014 3.863c2.545 4.98 7.712 8.395 13.688 8.395Z"/><path fill="#1976D2" d="M30.451 12.363h-1.238v-.064H15.376v6.15h8.689a9.256 9.256 0 0 1-3.142 4.282l.002-.001 4.759 4.026c-.337.306 5.066-3.695 5.066-11.382 0-1.031-.106-2.037-.299-3.011Z"/></svg>