<svg xmlns="http://www.w3.org/2000/svg" width="38" height="30" fill="none"><path fill="#03A9F4" d="M37.25 3.932a16.271 16.271 0 0 1-4.37 1.155c1.572-.905 2.772-2.329 3.337-4.044a15.5 15.5 0 0 1-4.81 1.771A7.734 7.734 0 0 0 25.866.5c-4.2 0-7.58 3.288-7.58 7.319 0 .58.05 1.137.175 1.668C12.155 9.19 6.575 6.274 2.827 1.833A7.17 7.17 0 0 0 1.788 5.53c0 2.534 1.353 4.78 3.37 6.081a7.703 7.703 0 0 1-3.428-.901v.08c0 3.556 2.63 6.51 6.078 7.19-.618.163-1.29.241-1.99.241-.485 0-.975-.027-1.435-.125.983 2.898 3.772 5.028 7.088 5.097a15.6 15.6 0 0 1-9.405 3.121c-.622 0-1.219-.027-1.816-.1 3.36 2.09 7.343 3.284 11.637 3.284 13.958 0 21.59-11.154 21.59-20.822 0-.324-.012-.636-.028-.946a14.848 14.848 0 0 0 3.801-3.8Z"/></svg>