<svg xmlns="http://www.w3.org/2000/svg" width="108" height="39" fill="none"><path fill="#000" d="M.863 37.698V1.148h14.55c7.2 0 11.6 3.75 11.6 9.85 0 4.05-1.8 6.95-5.25 8.4 3.85 1.25 5.8 4.15 5.8 8.4 0 6.25-4.35 9.9-11.9 9.9H.863Zm14-30.9h-7.6v9.95h7.75c3.5 0 5.45-1.85 5.45-5.1 0-3.15-2-4.85-5.6-4.85Zm.55 15.35h-8.15v9.9h8.15c3.6 0 5.6-1.75 5.6-5.05 0-3.1-2.05-4.85-5.6-4.85ZM35.582 8.048c-2.1 0-3.75-1.65-3.75-3.7 0-2.05 1.65-3.65 3.75-3.65 2 0 3.65 1.6 3.65 3.65s-1.65 3.7-3.65 3.7Zm-3.05 29.65v-24.7h6.1v24.7h-6.1ZM51.084 37.698h-6.05V.498h6.05v22.85l9.6-10.35h7.65l-9.4 9.8 9.2 14.9h-7l-6.45-10.4-3.6 3.75v6.65ZM69.265 25.298c0-7.7 5.55-13 13.2-13 7.65 0 13.2 5.3 13.2 13s-5.55 13-13.2 13c-7.65 0-13.2-5.3-13.2-13Zm6.1 0c0 4.5 2.9 7.55 7.1 7.55 4.2 0 7.1-3.05 7.1-7.55s-2.9-7.55-7.1-7.55c-4.2 0-7.1 3.05-7.1 7.55ZM103.087 38.298c-2.2 0-4.05-1.8-4.05-3.95 0-2.2 1.85-4 4.05-4 2.2 0 4.05 1.8 4.05 4 0 2.15-1.85 3.95-4.05 3.95Z"/></svg>