<svg xmlns="http://www.w3.org/2000/svg" width="22" height="19" fill="none"><path stroke="#BBB" stroke-width="1.255" d="M4.437 5.854c.12-.5.567-.851 1.08-.851h11.31c.51 0 .953.345 1.078.839l2.69 10.646a1.11 1.11 0 0 1-1.078 1.383H2.957a1.111 1.111 0 0 1-1.08-1.371l2.56-10.646Z"/><ellipse cx="8.725" cy="8.664" fill="#BBB" rx=".695" ry=".688"/><ellipse cx="11.42" cy="8.664" fill="#BBB" rx=".695" ry=".688"/><ellipse cx="14.115" cy="8.664" fill="#BBB" rx=".695" ry=".688"/><path stroke="#BBB" stroke-width="1.255" d="M12.722 2.852A1.74 1.74 0 0 1 10.97 4.58a1.74 1.74 0 0 1-1.753-1.727 1.74 1.74 0 0 1 1.753-1.726c.974 0 1.752.78 1.752 1.726Z"/></svg>