<svg xmlns="http://www.w3.org/2000/svg" width="19" height="19" fill="none"><path stroke="#BBB" d="M18.25 9.498a8.5 8.5 0 1 1-17 0 8.5 8.5 0 0 1 17 0Z"/><circle cx="9.75" cy="9.498" r="2.5" stroke="#BBB"/><path fill="#BBB" d="m9.75 1.498.223 6.878 2.838-6.269-2.425 6.44 5.02-4.706-4.705 5.021 6.44-2.425-6.269 2.838 6.878.223-6.878.223 6.269 2.838-6.44-2.425 4.706 5.02-5.021-4.705 2.426 6.44-2.839-6.269-.223 6.878-.223-6.878-2.838 6.27 2.425-6.44-5.02 4.705 4.705-5.021-6.44 2.425 6.269-2.838-6.878-.223 6.878-.223-6.269-2.838 6.44 2.425-4.706-5.02 5.021 4.705-2.425-6.44 2.838 6.269.223-6.878Z"/><circle cx="9.75" cy="9.498" r="2" fill="#fff"/></svg>