<svg xmlns="http://www.w3.org/2000/svg" width="33" height="19" fill="none"><path fill="#fff" fill-rule="evenodd" d="M12.125.332c.628 0 1.185.253 1.384.627l7.366 13.891 2.992-5.64c.198-.375.756-.628 1.383-.628h5.834c.805 0 1.458.41 1.458.917 0 .506-.653.917-1.458.917H26.3l-4.042 7.623c-.199.374-.756.627-1.384.627-.627 0-1.185-.253-1.383-.627L12.125 4.148l-2.991 5.64c-.199.375-.756.628-1.384.628H1.917c-.805 0-1.458-.41-1.458-.917 0-.506.653-.917 1.458-.917h4.782L10.742.96c.198-.374.756-.627 1.383-.627Z" clip-rule="evenodd"/></svg>