<svg xmlns="http://www.w3.org/2000/svg" width="22" height="22" fill="none"><path fill="#fff" fill-rule="evenodd" d="M8.328 3.076a7.66 7.66 0 0 1 10.834 10.832h-.001l-7.37 7.393a1.094 1.094 0 0 1-.775.322H1.719c-.604 0-1.094-.49-1.094-1.094v-9.297c0-.29.115-.568.32-.773l7.383-7.383Zm5.417-.056a5.472 5.472 0 0 0-3.87 1.603l-7.063 7.062v7.75h7.75l7.051-7.072.001-.001a5.472 5.472 0 0 0-3.87-9.342Z" clip-rule="evenodd"/><path fill="#fff" fill-rule="evenodd" d="M5 16.154c0-.604.49-1.094 1.094-1.094h8.75a1.094 1.094 0 0 1 0 2.188h-8.75c-.604 0-1.094-.49-1.094-1.094Z" clip-rule="evenodd"/></svg>