<svg xmlns="http://www.w3.org/2000/svg" width="39" height="25" fill="none"><path fill="#fff" d="M31.958 10.632c-.69 0-1.376.1-2.037.296l-3.887-8.83h4.028a.819.819 0 0 0 .57-.237.794.794 0 0 0 0-1.125.819.819 0 0 0-.57-.237h-5.266a.823.823 0 0 0-.68.36.792.792 0 0 0-.066.758l2.006 4.554H15.368L13.575 2.1h2.674a.824.824 0 0 0 .58-.232.799.799 0 0 0 .24-.568.79.79 0 0 0-.24-.569.814.814 0 0 0-.58-.231H8.94a.819.819 0 0 0-.569.237.794.794 0 0 0 0 1.126c.15.15.355.235.57.237h2.864l2.1 4.77-3.42 4.65a7.134 7.134 0 0 0-4.339-.828c-1.499.189-2.896.848-3.985 1.88a6.899 6.899 0 0 0-2.063 3.848 6.838 6.838 0 0 0 .673 4.3 6.989 6.989 0 0 0 3.144 3.058 7.14 7.14 0 0 0 4.376.612 7.074 7.074 0 0 0 3.884-2.077 6.887 6.887 0 0 0 1.86-3.947H19.5a.823.823 0 0 0 .658-.33l6.957-9.46 1.317 2.99a6.956 6.956 0 0 0-3.14 3.78 6.831 6.831 0 0 0 .17 4.878 6.976 6.976 0 0 0 3.394 3.559 7.14 7.14 0 0 0 4.935.473 7.036 7.036 0 0 0 4.027-2.847 6.846 6.846 0 0 0 1.122-4.755 6.9 6.9 0 0 0-2.34-4.304 7.104 7.104 0 0 0-4.641-1.717ZM14.656 8.576l3.605 8.189h-4.226a6.886 6.886 0 0 0-2.236-4.306l2.857-3.883Zm-2.26 8.189H8.632l2.206-2.999a5.295 5.295 0 0 1 1.558 2.999ZM7.04 22.898c-.82.001-1.63-.182-2.368-.534a5.403 5.403 0 0 1-1.893-1.5A5.297 5.297 0 0 1 1.743 18.7a5.253 5.253 0 0 1 .028-2.393 5.302 5.302 0 0 1 1.088-2.139 5.407 5.407 0 0 1 1.929-1.455 5.49 5.49 0 0 1 4.734.114l-3.14 4.269a.792.792 0 0 0 .234 1.151.822.822 0 0 0 .424.118h5.356a5.32 5.32 0 0 1-1.826 3.242 5.476 5.476 0 0 1-3.53 1.291Zm12.637-6.939-3.604-8.188H25.7l-6.023 8.188Zm12.281 6.94a5.471 5.471 0 0 1-3.259-1.073 5.33 5.33 0 0 1-1.947-2.787 5.253 5.253 0 0 1 .148-3.38 5.35 5.35 0 0 1 2.183-2.611l2.13 4.835a.807.807 0 0 0 .447.42c.199.077.421.073.618-.01a.806.806 0 0 0 .43-.437.789.789 0 0 0-.005-.61l-2.13-4.836a5.5 5.5 0 0 1 4.405.729c.64.423 1.18.975 1.586 1.62a5.254 5.254 0 0 1 .576 4.361 5.311 5.311 0 0 1-1.112 1.965 5.414 5.414 0 0 1-1.837 1.34 5.49 5.49 0 0 1-2.233.474Z"/></svg>