<svg xmlns="http://www.w3.org/2000/svg" width="114" height="50" fill="none"><path fill="#fff" d="M4.05 44h14.8c7.55 0 11.9-3.65 11.9-9.9 0-4.25-1.95-7.15-5.8-8.4 3.45-1.45 5.25-4.35 5.25-8.4 0-6.1-4.4-9.85-11.6-9.85H4.05V44Zm14-30.9c3.6 0 5.6 1.7 5.6 4.85 0 3.25-1.95 5.1-5.45 5.1h-7.75V13.1h7.6Zm.55 15.35c3.55 0 5.6 1.75 5.6 4.85 0 3.3-2 5.05-5.6 5.05h-8.15v-9.9h8.15Zm20.168-14.1c2 0 3.65-1.65 3.65-3.7 0-2.05-1.65-3.65-3.65-3.65-2.1 0-3.75 1.6-3.75 3.65s1.65 3.7 3.75 3.7ZM35.718 44h6.1V19.3h-6.1V44Zm18.553 0v-6.65l3.6-3.75L64.32 44h7l-9.2-14.9 9.4-9.8h-7.65l-9.6 10.35V6.8h-6.05V44h6.05Zm18.181-12.4c0 7.7 5.55 13 13.2 13 7.65 0 13.2-5.3 13.2-13s-5.55-13-13.2-13c-7.65 0-13.2 5.3-13.2 13Zm6.1 0c0-4.5 2.9-7.55 7.1-7.55 4.2 0 7.1 3.05 7.1 7.55s-2.9 7.55-7.1 7.55c-4.2 0-7.1-3.05-7.1-7.55Zm27.721 13c2.2 0 4.05-1.8 4.05-3.95 0-2.2-1.85-4-4.05-4-2.2 0-4.05 1.8-4.05 4 0 2.15 1.85 3.95 4.05 3.95Z"/></svg>